<!DOCTYPE svg PUBLIC "-//W3C//DTD SVG 1.1//EN" "http://www.w3.org/Graphics/SVG/1.1/DTD/svg11.dtd">
<!-- Uploaded to: SVG Repo, www.svgrepo.com, Transformed by: SVG Repo Mixer Tools -->
<svg version="1.0" id="Layer_1" xmlns="http://www.w3.org/2000/svg" xmlns:xlink="http://www.w3.org/1999/xlink" width="800px" height="800px" viewBox="0 0 64 64" enable-background="new 0 0 64 64" xml:space="preserve" fill="#ffffff">
<g id="SVGRepo_bgCarrier" stroke-width="0"/>
<g id="SVGRepo_tracerCarrier" stroke-linecap="round" stroke-linejoin="round"/>
<g id="SVGRepo_iconCarrier"> <path fill="#ffffff" d="M59.999,0H4C1.789,0,0,1.789,0,4v39.999c0,2.211,1.789,4,4,4h18.312l-5.778,10 c-1.105,1.914-0.449,4.359,1.465,5.465c1.914,1.105,4.359,0.449,5.464-1.465l8.086-14h0.898l8.086,14 c1.105,1.914,3.551,2.57,5.465,1.465s2.57-3.551,1.461-5.465l-5.777-10h18.316c2.211,0,4-1.789,4-4V4C63.999,1.789,62.21,0,59.999,0 z M23.999,35.999h-8v-8h8V35.999z M35.999,35.999h-8V20h8V35.999z M47.999,35.999h-8V12h8V35.999z"/> </g>
</svg>